<?xml version="1.0" encoding="UTF-8" standalone="no"?>
<svg
   xmlns:dc="http://purl.org/dc/elements/1.1/"
   xmlns:cc="http://creativecommons.org/ns#"
   xmlns:rdf="http://www.w3.org/1999/02/22-rdf-syntax-ns#"
   xmlns:svg="http://www.w3.org/2000/svg"
   xmlns="http://www.w3.org/2000/svg"
   xmlns:sodipodi="http://sodipodi.sourceforge.net/DTD/sodipodi-0.dtd"
   xmlns:inkscape="http://www.inkscape.org/namespaces/inkscape"
   width="72"
   height="72"
   viewBox="0 0 72 72"
   version="1.1"
   id="svg42"
   sodipodi:docname="Shape33.svg"
   inkscape:version="0.92.3 (2405546, 2018-03-11)"
   style="fill:none">
  <metadata
     id="metadata48">
    <rdf:RDF>
      <cc:Work
         rdf:about="">
        <dc:format>image/svg+xml</dc:format>
        <dc:type
           rdf:resource="http://purl.org/dc/dcmitype/StillImage" />
        <dc:title></dc:title>
      </cc:Work>
    </rdf:RDF>
  </metadata>
  <defs
     id="defs46" />
  <sodipodi:namedview
     pagecolor="#ffffff"
     bordercolor="#666666"
     borderopacity="1"
     objecttolerance="10"
     gridtolerance="10"
     guidetolerance="10"
     inkscape:pageopacity="0"
     inkscape:pageshadow="2"
     inkscape:window-width="1366"
     inkscape:window-height="705"
     id="namedview44"
     showgrid="false"
     inkscape:zoom="4.6354778"
     inkscape:cx="93.118733"
     inkscape:cy="45.520493"
     inkscape:window-x="-8"
     inkscape:window-y="-8"
     inkscape:window-maximized="1"
     inkscape:current-layer="svg42" />
  <path
     d="M 0,6 C 0,2.68629 2.68629,0 6,0 h 60 c 3.3137,0 6,2.68629 6,6 v 60 c 0,3.3137 -2.6863,6 -6,6 H 6 C 2.68629,72 0,69.3137 0,66 Z"
     id="path40"
     inkscape:connector-curvature="0"
     style="clip-rule:evenodd;opacity:0.1;fill:#1fdb84;fill-rule:evenodd;stroke-width:1" />
  <path
     d="m 17.30548,24.610157 c 0,-0.441834 0.358154,-0.799988 0.799988,-0.799988 H 28.50548 l 2.1032,2.10321 c 1.9474,-0.33728 3.9204,-0.50568 5.8968,-0.50323 7.9864,0 14.8298,2.642271 17.7238,6.400021 H 18.78162 c 1.06396,-1.30872 2.37695,-2.39343 3.86291,-3.19135 l -2.13904,-3.208671 h -2.400022 c -0.441834,0 -0.799988,-0.35816 -0.799988,-0.799992 z m 37.8656,13.600013 c 0.3427,-0.7543 0.5247,-1.5716 0.5344,-2.4 -0.0097,-0.8284 -0.1917,-1.6458 -0.5344,-2.40002 H 17.839843 c -0.712464,1.52072 -0.712464,3.27932 0,4.80002 z m -0.9418,1.6 H 18.78162 c 1.06396,1.3087 2.37695,2.3934 3.86291,3.1913 l -2.13904,3.2087 h -2.400022 c -0.441834,0 -0.799988,0.3582 -0.799988,0.8 0,0.4418 0.358154,0.8 0.799988,0.8 H 28.50548 l 2.1032,-2.1032 c 1.9474,0.3373 3.9204,0.5057 5.8968,0.5032 7.9864,0 14.8298,-2.6422 17.7238,-6.4 z m -30.14682,3.9192 -1.65393,2.4808 h 5.41425 l 0.8945,-0.8946 c -1.59959,-0.3758 -3.15861,-0.9071 -4.65482,-1.5862 z m 13.22302,4.0808 h 6.4 c 0.4419,0 0.8,0.3582 0.8,0.8 0,0.4418 -0.3581,0.8 -0.8,0.8 h -6.4 c -0.4418,0 -0.8,-0.3582 -0.8,-0.8 0,-0.4418 0.3582,-0.8 0.8,-0.8 z M 24.08246,27.890919 22.42853,25.410149 h 5.41425 l 0.8945,0.8944 c -1.59959,0.37586 -3.15861,0.90717 -4.65482,1.58637 z"
     id="path60"
     inkscape:connector-curvature="0"
     style="clip-rule:evenodd;fill:#1fdb84;fill-rule:evenodd;stroke-width:1" />
</svg>
