<?xml version="1.0" encoding="UTF-8" standalone="no"?>
<svg
   xmlns:dc="http://purl.org/dc/elements/1.1/"
   xmlns:cc="http://creativecommons.org/ns#"
   xmlns:rdf="http://www.w3.org/1999/02/22-rdf-syntax-ns#"
   xmlns:svg="http://www.w3.org/2000/svg"
   xmlns="http://www.w3.org/2000/svg"
   xmlns:sodipodi="http://sodipodi.sourceforge.net/DTD/sodipodi-0.dtd"
   xmlns:inkscape="http://www.inkscape.org/namespaces/inkscape"
   width="72"
   height="72"
   viewBox="0 0 72 72"
   version="1.1"
   id="svg3786"
   sodipodi:docname="Shape22.svg"
   inkscape:version="0.92.3 (2405546, 2018-03-11)"
   style="fill:none">
  <metadata
     id="metadata3792">
    <rdf:RDF>
      <cc:Work
         rdf:about="">
        <dc:format>image/svg+xml</dc:format>
        <dc:type
           rdf:resource="http://purl.org/dc/dcmitype/StillImage" />
        <dc:title></dc:title>
      </cc:Work>
    </rdf:RDF>
  </metadata>
  <defs
     id="defs3790" />
  <sodipodi:namedview
     pagecolor="#ffffff"
     bordercolor="#666666"
     borderopacity="1"
     objecttolerance="10"
     gridtolerance="10"
     guidetolerance="10"
     inkscape:pageopacity="0"
     inkscape:pageshadow="2"
     inkscape:window-width="1366"
     inkscape:window-height="705"
     id="namedview3788"
     showgrid="false"
     inkscape:zoom="3.2777778"
     inkscape:cx="71.762778"
     inkscape:cy="63.169601"
     inkscape:window-x="-8"
     inkscape:window-y="-8"
     inkscape:window-maximized="1"
     inkscape:current-layer="svg3786" />
  <path
     d="m 0.30508475,5.69492 c 0,-3.31371 2.68629005,-6 6.00000035,-6 H 66.305085 c 3.3137,0 6,2.68629 6,6 v 60 c 0,3.3137 -2.6863,6 -6,6 H 6.3050851 c -3.3137103,0 -6.00000035,-2.6863 -6.00000035,-6 z"
     id="path3784"
     inkscape:connector-curvature="0"
     style="clip-rule:evenodd;opacity:0.1;fill:#1fdb84;fill-rule:evenodd;stroke-width:0.99999994" />
  <path
     inkscape:connector-curvature="0"
     style="clip-rule:evenodd;fill:#1fdb84;fill-rule:evenodd;stroke-width:1.0481813"
     d="M 53.905089,19.630515 H 18.705073 c -1.32489,0.0016 -2.398586,1.181162 -2.39999,2.636865 v 28.12628 c 0.0014,1.45565 1.0751,2.63531 2.39999,2.63685 h 4 l 4.08001,-5.97684 c 0.4533,-0.66394 1.1646,-1.05474 1.92,-1.05474 H 43.90508 c 0.755402,0 1.466704,0.3908 1.920003,1.05474 l 4.079999,5.97684 h 4.000007 c 1.324896,-9.9e-4 2.398596,-1.1812 2.399994,-2.63685 V 22.26738 c -0.0013,-1.455703 -1.075098,-2.635322 -2.399994,-2.636865 z M 23.505093,42.48314 h -3.20001 c -0.441799,0 -0.79999,-0.39355 -0.79999,-0.87895 0,-0.48539 0.358191,-0.87895 0.79999,-0.87895 h 3.20001 c 0.44184,0 0.79999,0.39356 0.79999,0.87895 0,0.4854 -0.35815,0.87895 -0.79999,0.87895 z m -3.20001,-7.03158 h 3.20001 c 0.44184,0 0.79999,-0.39355 0.79999,-0.87894 0,-0.48552 -0.35815,-0.87895 -0.79999,-0.87895 h -3.20001 c -0.441799,0 -0.79999,0.39343 -0.79999,0.87895 0,0.48539 0.358191,0.87894 0.79999,0.87894 z m 3.20001,-7.03158 h -3.20001 c -0.441799,0 -0.79999,-0.39349 -0.79999,-0.878928 0,-0.485431 0.358191,-0.878937 0.79999,-0.878937 h 3.20001 c 0.44184,0 0.79999,0.393506 0.79999,0.878937 0,0.485438 -0.35815,0.878928 -0.79999,0.878928 z m 19.999991,14.06316 c 0.8837,0 1.599996,-0.78699 1.599996,-1.7579 V 28.41998 c 0,-0.9708 -0.716296,-1.757865 -1.599996,-1.757865 H 29.105083 c -0.8836,0 -1.6,0.787065 -1.6,1.757865 v 12.30526 c 0,0.97091 0.7164,1.7579 1.6,1.7579 z m 8.8,0 h -3.199998 c -0.441804,0 -0.8,-0.39355 -0.8,-0.87895 0,-0.48539 0.358196,-0.87895 0.8,-0.87895 h 3.199998 c 0.441805,0 0.800001,0.39356 0.800001,0.87895 0,0.4854 -0.358196,0.87895 -0.800001,0.87895 z m -3.199998,-7.03158 h 3.199998 c 0.441805,0 0.800001,-0.39355 0.800001,-0.87894 0,-0.48552 -0.358196,-0.87895 -0.800001,-0.87895 h -3.199998 c -0.441804,0 -0.8,0.39343 -0.8,0.87895 0,0.48539 0.358196,0.87894 0.8,0.87894 z m 3.199998,-7.03158 h -3.199998 c -0.441804,0 -0.8,-0.39349 -0.8,-0.878928 0,-0.485431 0.358196,-0.878937 0.8,-0.878937 h 3.199998 c 0.441805,0 0.800001,0.393506 0.800001,0.878937 0,0.485438 -0.358196,0.878928 -0.800001,0.878928 z M 46.705083,51.27262 44.545081,48.1084 C 44.393683,47.88746 44.156783,47.75738 43.90508,47.75683 H 28.705083 c -0.2517,3.9e-4 -0.4886,0.13063 -0.64,0.35157 l -2.15999,3.16422 z"
     id="path3804" />
</svg>
